<svg width="19" height="18" viewBox="0 0 19 18" fill="none" xmlns="http://www.w3.org/2000/svg">
<path d="M4.21552 1C4.21552 0.447715 4.65937 0 5.2069 0C5.75442 0 6.19828 0.447715 6.19828 1V2H12.1466V1C12.1466 0.447715 12.5904 0 13.1379 0C13.6855 0 14.1293 0.447715 14.1293 1V2H16.1121C17.2071 2 18.0948 2.89543 18.0948 4V7H0.25V4C0.25 2.89543 1.13771 2 2.23276 2H4.21552V1Z" fill="#09244B"/>
<path d="M0.25 9H18.0948V16C18.0948 17.1046 17.2071 18 16.1121 18H2.23276C1.13771 18 0.25 17.1046 0.25 16V9Z" fill="#09244B"/>
</svg>
