<svg width="20" height="16" viewBox="0 0 20 16" fill="none" xmlns="http://www.w3.org/2000/svg">
<path d="M7.21121 8.44444C7.21121 6.97169 8.43556 5.77778 9.94587 5.77778C11.4562 5.77778 12.6805 6.97169 12.6805 8.44444C12.6805 9.9172 11.4562 11.1111 9.94587 11.1111C8.43556 11.1111 7.21121 9.9172 7.21121 8.44444Z" fill="#09244B"/>
<path fill-rule="evenodd" clip-rule="evenodd" d="M7.4 0C7.03736 0 6.68958 0.140475 6.43316 0.390524L5.01053 1.77778H2.65346C1.64658 1.77778 0.830353 2.57372 0.830353 3.55556V14.2222C0.830353 15.2041 1.64658 16 2.65346 16H17.2383C18.2452 16 19.0614 15.2041 19.0614 14.2222V3.55556C19.0614 2.57372 18.2452 1.77778 17.2383 1.77778H14.8812L13.4586 0.390524C13.2022 0.140476 12.8544 0 12.4917 0H7.4ZM9.94587 4C7.42869 4 5.38811 5.98985 5.38811 8.44444C5.38811 10.899 7.42869 12.8889 9.94587 12.8889C12.463 12.8889 14.5036 10.899 14.5036 8.44444C14.5036 5.98985 12.463 4 9.94587 4Z" fill="#09244B"/>
</svg>
