<svg width="20" height="20" viewBox="0 0 20 20" fill="none" xmlns="http://www.w3.org/2000/svg">
<path d="M7 10.4648C7 8.63972 8.34315 7.16016 10 7.16016C11.6569 7.16016 13 8.63972 13 10.4648C13 12.29 11.6569 13.7695 10 13.7695C8.34315 13.7695 7 12.29 7 10.4648Z" fill="#09244B"/>
<path fill-rule="evenodd" clip-rule="evenodd" d="M7.20711 0C6.80928 0 6.42775 0.174085 6.14645 0.48396L4.58579 2.20312H2C0.89543 2.20312 0 3.1895 0 4.40625V17.625C0 18.8418 0.895432 19.8281 2 19.8281H18C19.1046 19.8281 20 18.8418 20 17.625V4.40625C20 3.1895 19.1046 2.20312 18 2.20312H15.4142L13.8536 0.48396C13.5722 0.174086 13.1907 0 12.7929 0H7.20711ZM10 4.95703C7.23858 4.95703 5 7.42296 5 10.4648C5 13.5067 7.23858 15.9727 10 15.9727C12.7614 15.9727 15 13.5067 15 10.4648C15 7.42296 12.7614 4.95703 10 4.95703Z" fill="#09244B"/>
</svg>
