<svg width="21" height="18" viewBox="0 0 21 18" fill="none" xmlns="http://www.w3.org/2000/svg">
<path d="M7.21875 9.5C7.21875 7.84315 8.60387 6.5 10.3125 6.5C12.0211 6.5 13.4062 7.84315 13.4062 9.5C13.4062 11.1569 12.0211 12.5 10.3125 12.5C8.60387 12.5 7.21875 11.1569 7.21875 9.5Z" fill="#09244B"/>
<path fill-rule="evenodd" clip-rule="evenodd" d="M7.43233 0C7.02207 0 6.62862 0.158035 6.33852 0.43934L4.72909 2H2.0625C0.923412 2 0 2.89543 0 4V16C0 17.1046 0.923414 18 2.0625 18H18.5625C19.7016 18 20.625 17.1046 20.625 16V4C20.625 2.89543 19.7016 2 18.5625 2H15.8959L14.2865 0.43934C13.9964 0.158036 13.6029 0 13.1927 0H7.43233ZM10.3125 4.5C7.46478 4.5 5.15625 6.73858 5.15625 9.5C5.15625 12.2614 7.46478 14.5 10.3125 14.5C13.1602 14.5 15.4688 12.2614 15.4688 9.5C15.4688 6.73858 13.1602 4.5 10.3125 4.5Z" fill="#09244B"/>
</svg>
