<svg width="20" height="19" viewBox="0 0 20 19" fill="none" xmlns="http://www.w3.org/2000/svg">
<path fill-rule="evenodd" clip-rule="evenodd" d="M0 9.1423C0 4.09315 4.47715 0 10 0C15.5228 0 20 4.09315 20 9.1423C20 14.1915 15.5228 18.2846 10 18.2846H2C0.89543 18.2846 0 17.466 0 16.4561V9.1423ZM6 8.22807C6 7.72315 6.44772 7.31384 7 7.31384H13C13.5523 7.31384 14 7.72315 14 8.22807C14 8.73299 13.5523 9.1423 13 9.1423H7C6.44772 9.1423 6 8.73299 6 8.22807ZM7 10.9708C6.44772 10.9708 6 11.3801 6 11.885C6 12.3899 6.44772 12.7992 7 12.7992H10C10.5523 12.7992 11 12.3899 11 11.885C11 11.3801 10.5523 10.9708 10 10.9708H7Z" fill="#09244B"/>
</svg>
