<svg width="20" height="18" viewBox="0 0 20 18" fill="none" xmlns="http://www.w3.org/2000/svg">
<path fill-rule="evenodd" clip-rule="evenodd" d="M0 8.90804C0 3.98827 4.47715 0 10 0C15.5228 0 20 3.98827 20 8.90804C20 13.8278 15.5228 17.8161 10 17.8161H2C0.89543 17.8161 0 17.0184 0 16.0345V8.90804ZM6 8.01724C6 7.52526 6.44772 7.12644 7 7.12644H13C13.5523 7.12644 14 7.52526 14 8.01724C14 8.50922 13.5523 8.90804 13 8.90804H7C6.44772 8.90804 6 8.50922 6 8.01724ZM7 10.6897C6.44772 10.6897 6 11.0885 6 11.5805C6 12.0724 6.44772 12.4713 7 12.4713H10C10.5523 12.4713 11 12.0724 11 11.5805C11 11.0885 10.5523 10.6897 10 10.6897H7Z" fill="#09244B"/>
</svg>
