<svg width="21" height="20" viewBox="0 0 21 20" fill="none" xmlns="http://www.w3.org/2000/svg">
<path d="M16.3752 0.50769C17.2504 0.50769 17.9599 1.23769 17.9599 2.13819V14.3201L18.2428 14.029C18.8616 13.3923 19.865 13.3923 20.4839 14.029C21.1027 14.6658 21.1027 15.6981 20.4839 16.3349L17.4957 19.4094C16.8769 20.0461 15.8735 20.0461 15.2546 19.4094L12.2665 16.3349C11.6476 15.6981 11.6476 14.6658 12.2665 14.029C12.8854 13.3923 13.8887 13.3923 14.5076 14.029L14.7905 14.3201V2.13819C14.7905 1.23769 15.5 0.50769 16.3752 0.50769Z" fill="#09244B"/>
<path d="M1.5847 8.11667C0.709492 8.11667 0 8.84667 0 9.74717C0 10.6477 0.709492 11.3777 1.5847 11.3777H11.0929C11.9681 11.3777 12.6776 10.6477 12.6776 9.74717C12.6776 8.84667 11.9681 8.11667 11.0929 8.11667H1.5847Z" fill="#09244B"/>
<path d="M0 2.13819C0 1.23769 0.709492 0.50769 1.5847 0.50769H11.0929C11.9681 0.50769 12.6776 1.23769 12.6776 2.13819C12.6776 3.03868 11.9681 3.76868 11.0929 3.76868H1.5847C0.709492 3.76868 0 3.03868 0 2.13819Z" fill="#09244B"/>
<path d="M1.5847 15.7257C0.709492 15.7257 0 16.4557 0 17.3561C0 18.2566 0.709492 18.9866 1.5847 18.9866H8.97994C9.85514 18.9866 10.5646 18.2566 10.5646 17.3561C10.5646 16.4557 9.85514 15.7257 8.97994 15.7257H1.5847Z" fill="#09244B"/>
</svg>
