<svg width="20" height="17" viewBox="0 0 20 17" fill="none" xmlns="http://www.w3.org/2000/svg">
<path d="M0.749512 1.5C0.749512 0.671573 1.42296 0 2.25369 0H18.2983C19.129 0 19.8024 0.671573 19.8024 1.5C19.8024 2.32843 19.129 3 18.2983 3H2.25369C1.42296 3 0.749512 2.32843 0.749512 1.5Z" fill="#8A8A8A"/>
<path d="M0.749512 8.5C0.749512 7.67157 1.42296 7 2.25369 7H18.2983C19.129 7 19.8024 7.67157 19.8024 8.5C19.8024 9.32843 19.129 10 18.2983 10H2.25369C1.42296 10 0.749512 9.32843 0.749512 8.5Z" fill="#8A8A8A"/>
<path d="M2.25369 14C1.42296 14 0.749512 14.6716 0.749512 15.5C0.749512 16.3284 1.42296 17 2.25369 17H18.2983C19.129 17 19.8024 16.3284 19.8024 15.5C19.8024 14.6716 19.129 14 18.2983 14H2.25369Z" fill="#8A8A8A"/>
</svg>
