<svg width="22" height="22" viewBox="0 0 22 22" fill="none" xmlns="http://www.w3.org/2000/svg">
<path fill-rule="evenodd" clip-rule="evenodd" d="M11 13.9673L18.4182 21.3854C19.2376 22.2048 20.5661 22.2048 21.3855 21.3854C22.2048 20.566 22.2048 19.2376 21.3855 18.4182L13.9673 11L21.3855 3.58183C22.2048 2.76244 22.2048 1.43395 21.3855 0.614559C20.5661 -0.20483 19.2376 -0.20483 18.4182 0.614559L11 8.03273L3.58182 0.614542C2.76243 -0.204847 1.43393 -0.204847 0.614543 0.614542C-0.204847 1.43393 -0.204848 2.76242 0.614543 3.58181L8.03273 11L0.614543 18.4182C-0.204847 19.2376 -0.204847 20.5661 0.614543 21.3855C1.43393 22.2048 2.76243 22.2048 3.58182 21.3855L11 13.9673Z" fill="#09244B"/>
</svg>
