<svg width="20" height="17" viewBox="0 0 20 17" fill="none" xmlns="http://www.w3.org/2000/svg">
<path d="M0.749542 1.5C0.749542 0.671573 1.42299 0 2.25372 0H18.2983C19.129 0 19.8025 0.671573 19.8025 1.5C19.8025 2.32843 19.129 3 18.2983 3H2.25372C1.42299 3 0.749542 2.32843 0.749542 1.5Z" fill="#8A8A8A"/>
<path d="M0.749542 8.5C0.749542 7.67157 1.42299 7 2.25372 7H18.2983C19.129 7 19.8025 7.67157 19.8025 8.5C19.8025 9.32843 19.129 10 18.2983 10H2.25372C1.42299 10 0.749542 9.32843 0.749542 8.5Z" fill="#8A8A8A"/>
<path d="M2.25372 14C1.42299 14 0.749542 14.6716 0.749542 15.5C0.749542 16.3284 1.42299 17 2.25372 17H18.2983C19.129 17 19.8025 16.3284 19.8025 15.5C19.8025 14.6716 19.129 14 18.2983 14H2.25372Z" fill="#8A8A8A"/>
</svg>
